<svg width="300" height="300" viewBox="0 0 300 300" fill="none" xmlns="http://www.w3.org/2000/svg">
<circle cx="150" cy="150" r="150" fill="#F8FBFF"/>
<g filter="url(#filter0_d_53_738)">
<circle cx="150" cy="150" r="125" fill="white"/>
</g>
<path d="M165.031 142.969C163.391 134.297 155.891 127.5 146.75 127.5C143.703 127.5 141.125 128.203 138.547 129.375C134.562 123.75 128 120 120.5 120C108.078 120 98 130.078 98 142.5C98 142.734 98 142.969 98 142.969C89.3281 144.609 83 152.344 83 161.25C83 171.797 91.2031 180 101.75 180H161.75C172.062 180 180.5 171.797 180.5 161.25C180.5 152.109 173.703 144.609 165.031 142.969ZM215.891 142.5C199.484 145.781 184.25 133.125 184.25 116.484C184.25 107.109 189.406 98.2031 197.844 93.5156C199.016 92.8125 198.781 90.9375 197.375 90.7031C195.266 90.2344 193.156 90 191.047 90C172.766 90 158 104.531 157.297 122.344C163.625 125.156 168.547 130.312 171.125 136.875C179.797 140.156 186.125 147.891 187.531 157.266C188.703 157.266 189.875 157.5 191.047 157.5C201.594 157.5 211.203 152.812 217.531 145.078C218.469 143.906 217.531 142.266 215.891 142.5ZM168.312 188.203C166.438 187.031 164.328 187.734 163.156 189.609L154.719 204.609C153.547 206.25 154.25 208.594 156.125 209.531C156.594 210 157.297 210 158 210C159.172 210 160.344 209.531 161.047 208.125L169.719 193.125C170.656 191.484 170.188 189.141 168.312 188.203ZM145.812 188.203C143.938 187.031 141.828 187.734 140.656 189.609L132.219 204.609C131.047 206.25 131.75 208.594 133.625 209.531C134.094 210 134.797 210 135.5 210C136.672 210 137.844 209.531 138.547 208.125L147.219 193.125C148.156 191.484 147.688 189.141 145.812 188.203ZM123.312 188.203C121.438 187.031 119.328 187.734 118.156 189.609L109.719 204.609C108.547 206.25 109.25 208.594 111.125 209.531C111.594 210 112.297 210 113 210C114.172 210 115.344 209.531 116.047 208.125L124.719 193.125C125.656 191.484 125.188 189.141 123.312 188.203ZM100.812 188.203C98.9375 187.031 96.8281 187.734 95.6562 189.609L87.2188 204.609C86.0469 206.25 86.75 208.594 88.625 209.531C89.0938 210 89.7969 210 90.5 210C91.6719 210 92.8438 209.531 93.5469 208.125L102.219 193.125C103.156 191.484 102.688 189.141 100.812 188.203Z" fill="#0C386C" fill-opacity="0.56"/>
<defs>
<filter id="filter0_d_53_738" x="15" y="19" width="270" height="270" filterUnits="userSpaceOnUse" color-interpolation-filters="sRGB">
<feFlood flood-opacity="0" result="BackgroundImageFix"/>
<feColorMatrix in="SourceAlpha" type="matrix" values="0 0 0 0 0 0 0 0 0 0 0 0 0 0 0 0 0 0 127 0" result="hardAlpha"/>
<feOffset dy="4"/>
<feGaussianBlur stdDeviation="5"/>
<feComposite in2="hardAlpha" operator="out"/>
<feColorMatrix type="matrix" values="0 0 0 0 0.0460417 0 0 0 0 0.220363 0 0 0 0 0.425 0 0 0 0.1 0"/>
<feBlend mode="normal" in2="BackgroundImageFix" result="effect1_dropShadow_53_738"/>
<feBlend mode="normal" in="SourceGraphic" in2="effect1_dropShadow_53_738" result="shape"/>
</filter>
</defs>
</svg>
